<svg xmlns="http://www.w3.org/2000/svg" xmlns:xlink="http://www.w3.org/1999/xlink" width="1920" zoomAndPan="magnify" viewBox="0 0 1440 809.999993" height="1080" preserveAspectRatio="xMidYMid meet" version="1.0"><defs><clipPath id="5e2b564a04"><path d="M 179 653 L 581 653 L 581 692.96875 L 179 692.96875 Z M 179 653 " clip-rule="nonzero"/></clipPath><clipPath id="8bf8a8f638"><path d="M 578 433 L 581.832031 433 L 581.832031 643 L 578 643 Z M 578 433 " clip-rule="nonzero"/></clipPath><clipPath id="6db7e55508"><path d="M 113.832031 524 L 243 524 L 243 654 L 113.832031 654 Z M 113.832031 524 " clip-rule="nonzero"/></clipPath><clipPath id="4ae403d73e"><path d="M 113.832031 207 L 275 207 L 275 514 L 113.832031 514 Z M 113.832031 207 " clip-rule="nonzero"/></clipPath></defs><rect x="-144" width="1728" fill="#ffffff" y="-80.999999" height="971.999992" fill-opacity="1"/><rect x="-144" width="1728" fill="#ffffff" y="-80.999999" height="971.999992" fill-opacity="1"/><path fill="#303596" d="M 579.636719 415.964844 L 580.800781 415.964844 L 580.800781 207.140625 L 292.796875 207.140625 L 292.796875 208.304688 L 579.636719 208.304688 Z M 579.636719 415.964844 " fill-opacity="1" fill-rule="nonzero"/><g clip-path="url(#5e2b564a04)"><path fill="#303596" d="M 579.636719 691.398438 L 180.4375 691.398438 L 180.4375 653.429688 L 179.277344 653.429688 L 179.277344 692.558594 L 580.800781 692.558594 L 580.800781 658.785156 L 579.636719 658.785156 Z M 579.636719 691.398438 " fill-opacity="1" fill-rule="nonzero"/></g><path fill="#303596" d="M 540.367188 384.015625 L 453.800781 384.015625 L 411.746094 426.074219 L 411.746094 512.640625 L 412.90625 512.640625 L 413.3125 513.046875 L 413.71875 512.640625 L 498.300781 512.640625 L 540.355469 470.582031 L 540.355469 384.015625 Z M 454.289062 385.179688 L 454.625 385.179688 L 454.625 425.726562 L 413.742188 425.726562 Z M 413.253906 511.480469 L 412.917969 511.480469 L 412.917969 426.898438 L 454.625 426.898438 L 454.625 470.105469 Z M 497.496094 511.480469 L 414.894531 511.480469 L 455.441406 470.933594 L 497.484375 470.933594 L 497.484375 511.480469 Z M 497.496094 469.769531 L 455.789062 469.769531 L 455.789062 426.898438 L 497.496094 426.898438 Z M 497.835938 425.738281 L 455.789062 425.738281 L 455.789062 385.191406 L 538.394531 385.191406 Z M 497.835938 425.738281 " fill-opacity="1" fill-rule="nonzero"/><g clip-path="url(#8bf8a8f638)"><path fill="#303596" d="M 578.476562 433.21875 L 581.960938 433.21875 L 581.960938 642.042969 L 578.476562 642.042969 Z M 578.476562 433.21875 " fill-opacity="1" fill-rule="nonzero"/></g><g clip-path="url(#6db7e55508)"><path fill="#303596" d="M 155.890625 524.816406 L 113.832031 566.875 L 113.832031 653.441406 L 114.996094 653.441406 L 115.402344 653.847656 L 115.808594 653.441406 L 200.398438 653.441406 L 242.457031 611.382812 L 242.457031 524.816406 Z M 156.367188 525.976562 L 156.703125 525.976562 L 156.703125 566.527344 L 115.820312 566.527344 Z M 115.332031 652.265625 L 114.996094 652.265625 L 114.996094 567.6875 L 156.703125 567.6875 L 156.703125 610.894531 Z M 199.574219 652.265625 L 116.96875 652.265625 L 157.515625 611.71875 L 199.574219 611.71875 Z M 199.574219 610.558594 L 157.863281 610.558594 L 157.863281 567.6875 L 199.574219 567.6875 Z M 199.910156 566.527344 L 157.863281 566.527344 L 157.863281 525.976562 L 240.46875 525.976562 Z M 199.910156 566.527344 " fill-opacity="1" fill-rule="nonzero"/></g><g clip-path="url(#4ae403d73e)"><path fill="#303596" d="M 115.402344 513.046875 L 115.808594 512.640625 L 200.386719 512.640625 L 242.445312 470.582031 L 242.445312 243.226562 L 180.4375 243.226562 L 180.4375 208.304688 L 274.523438 208.304688 L 274.523438 207.140625 L 179.277344 207.140625 L 179.277344 243.226562 L 155.890625 243.226562 L 113.832031 285.285156 L 113.832031 512.640625 L 114.996094 512.640625 Z M 157.863281 244.390625 L 179.277344 244.390625 L 179.277344 264.464844 L 180.4375 264.464844 L 180.4375 244.390625 L 240.46875 244.390625 L 199.921875 284.9375 L 157.863281 284.9375 Z M 157.863281 286.097656 L 199.574219 286.097656 L 199.574219 469.757812 L 157.863281 469.757812 Z M 199.574219 470.933594 L 199.574219 511.480469 L 116.96875 511.480469 L 157.515625 470.933594 Z M 156.367188 244.390625 L 156.703125 244.390625 L 156.703125 284.9375 L 115.820312 284.9375 Z M 114.996094 286.097656 L 156.703125 286.097656 L 156.703125 470.105469 L 115.332031 511.480469 L 114.996094 511.480469 Z M 114.996094 286.097656 " fill-opacity="1" fill-rule="nonzero"/></g><path fill="#303596" d="M 262.800781 566.875 L 262.800781 653.441406 L 263.960938 653.441406 L 264.367188 653.847656 L 264.773438 653.441406 L 349.355469 653.441406 L 391.414062 611.382812 L 391.414062 524.816406 L 304.847656 524.816406 Z M 264.289062 652.265625 L 263.949219 652.265625 L 263.949219 567.6875 L 305.660156 567.6875 L 305.660156 610.894531 Z M 306.832031 525.976562 L 389.4375 525.976562 L 348.890625 566.527344 L 306.84375 566.527344 L 306.84375 525.976562 Z M 306.832031 567.6875 L 348.542969 567.6875 L 348.542969 610.558594 L 306.832031 610.558594 Z M 348.542969 611.71875 L 348.542969 652.265625 L 265.9375 652.265625 L 306.484375 611.71875 Z M 305.671875 525.976562 L 305.671875 566.527344 L 264.785156 566.527344 L 305.332031 525.976562 Z M 305.671875 525.976562 " fill-opacity="1" fill-rule="nonzero"/><path fill="#303596" d="M 540.367188 243.226562 L 453.800781 243.226562 L 411.746094 285.285156 L 411.746094 371.851562 L 412.90625 371.851562 L 413.3125 372.257812 L 413.71875 371.851562 L 498.300781 371.851562 L 540.355469 329.792969 L 540.355469 243.226562 Z M 454.289062 244.390625 L 454.625 244.390625 L 454.625 284.9375 L 413.742188 284.9375 Z M 413.253906 370.679688 L 412.917969 370.679688 L 412.917969 286.097656 L 454.625 286.097656 L 454.625 329.308594 Z M 497.496094 370.679688 L 414.894531 370.679688 L 455.441406 330.132812 L 497.484375 330.132812 L 497.484375 370.679688 Z M 497.496094 328.96875 L 455.789062 328.96875 L 455.789062 286.097656 L 497.496094 286.097656 Z M 497.835938 284.9375 L 455.789062 284.9375 L 455.789062 244.390625 L 538.394531 244.390625 Z M 497.835938 284.9375 " fill-opacity="1" fill-rule="nonzero"/><path fill="#303596" d="M 264.378906 321.058594 C 264.378906 348.234375 286.488281 370.34375 313.664062 370.34375 C 328.777344 370.34375 342.324219 363.5 351.375 352.742188 L 376.355469 328.027344 L 376.496094 327.890625 C 377.367188 327.078125 378.191406 326.226562 378.992188 325.355469 C 387.394531 316.515625 392.550781 304.582031 392.550781 291.453125 C 392.550781 264.28125 370.441406 242.171875 343.265625 242.171875 C 330.289062 242.171875 318.472656 247.226562 309.667969 255.449219 C 309.550781 255.554688 309.433594 255.648438 309.320312 255.753906 L 308.890625 256.183594 C 308.515625 256.542969 308.15625 256.914062 307.796875 257.285156 L 304.636719 260.46875 L 279.355469 285.714844 C 279.019531 286.042969 278.695312 286.367188 278.367188 286.703125 L 277.253906 287.820312 L 277.277344 287.84375 C 269.28125 296.625 264.378906 308.277344 264.378906 321.058594 Z M 313.675781 272.9375 C 340.210938 272.9375 361.796875 294.523438 361.796875 321.058594 C 361.796875 326.601562 360.84375 331.933594 359.113281 336.894531 C 354.152344 338.625 348.820312 339.589844 343.277344 339.589844 C 316.742188 339.589844 295.15625 318.003906 295.15625 291.464844 C 295.15625 285.925781 296.109375 280.59375 297.839844 275.632812 C 302.800781 273.886719 308.121094 272.9375 313.675781 272.9375 Z M 279.160156 287.574219 L 280.214844 286.515625 C 284.828125 282.042969 290.335938 278.488281 296.433594 276.140625 C 294.855469 280.964844 293.984375 286.109375 293.984375 291.464844 C 293.984375 318.640625 316.09375 340.75 343.265625 340.75 C 348.613281 340.75 353.757812 339.878906 358.589844 338.300781 C 351.644531 356.34375 334.136719 369.191406 313.675781 369.191406 C 287.140625 369.191406 265.554688 347.605469 265.554688 321.070312 C 265.542969 308.058594 270.746094 296.242188 279.160156 287.574219 Z M 279.160156 287.574219 " fill-opacity="1" fill-rule="nonzero"/><path fill="#303596" d="M 391.414062 384.015625 L 304.847656 384.015625 L 262.789062 426.074219 L 262.789062 512.640625 L 263.949219 512.640625 L 264.355469 513.046875 L 264.761719 512.640625 L 349.34375 512.640625 L 391.402344 470.582031 L 391.402344 384.015625 Z M 305.332031 385.179688 L 305.671875 385.179688 L 305.671875 425.726562 L 264.785156 425.726562 Z M 264.296875 511.480469 L 263.960938 511.480469 L 263.960938 426.898438 L 305.671875 426.898438 L 305.671875 470.105469 Z M 348.542969 511.480469 L 265.9375 511.480469 L 306.484375 470.933594 L 348.53125 470.933594 L 348.53125 511.480469 Z M 348.542969 469.769531 L 306.832031 469.769531 L 306.832031 426.898438 L 348.542969 426.898438 Z M 348.878906 425.738281 L 306.832031 425.738281 L 306.832031 385.191406 L 389.4375 385.191406 Z M 348.878906 425.738281 " fill-opacity="1" fill-rule="nonzero"/><path fill="#303596" d="M 411.753906 566.875 L 411.753906 653.441406 L 412.917969 653.441406 L 413.324219 653.847656 L 413.730469 653.441406 L 498.3125 653.441406 L 540.367188 611.382812 L 540.367188 524.816406 L 453.800781 524.816406 Z M 413.253906 652.265625 L 412.917969 652.265625 L 412.917969 567.6875 L 454.625 567.6875 L 454.625 610.894531 Z M 455.789062 525.976562 L 538.394531 525.976562 L 497.847656 566.527344 L 455.800781 566.527344 L 455.800781 525.976562 Z M 455.789062 567.6875 L 497.496094 567.6875 L 497.496094 610.558594 L 455.789062 610.558594 Z M 497.496094 611.71875 L 497.496094 652.265625 L 414.894531 652.265625 L 455.441406 611.71875 Z M 454.625 525.976562 L 454.625 566.527344 L 413.742188 566.527344 L 454.289062 525.976562 Z M 454.625 525.976562 " fill-opacity="1" fill-rule="nonzero"/></svg>